<svg width="309" height="174" viewBox="0 0 309 174" fill="none" xmlns="http://www.w3.org/2000/svg">
<path d="M3 171.27C39.069 135.201 87.8396 103.869 139 95.1814C152.912 92.819 220.6 81.0346 220.6 107.27C220.6 119.836 206.517 117.603 199.089 113.67C184.466 105.929 173.569 98.4883 163.356 84.8703C147.59 63.8502 130.259 29.925 153.4 8.0703C163.387 -1.36176 182.496 4.00328 191.8 10.9148C200.922 17.6909 206.992 26.3872 213.844 35.2703C219.414 42.4902 217.919 41.7575 222.2 33.6703C232.946 13.372 267.144 -0.887207 273.044 30.8259C276.355 48.619 270.497 64.0672 265.044 80.4258C262.996 86.5706 259.821 97.2523 255.444 102.115C250.68 107.409 248.099 98.9667 249.755 94.4703C253.874 83.2914 259.436 78.4703 271.444 78.4703C282.305 78.4703 296.714 86.9154 297.4 99.2703C297.781 106.125 299.515 104.448 301.844 99.2703C303.652 95.2535 306.289 82.4211 306.289 86.8259C306.289 88.3777 306.203 101.224 304.689 102.115C299.299 105.285 291.979 105.344 286.2 107.27" stroke="#1C1C1C" stroke-width="5" stroke-linecap="round"/>
</svg>
