<svg width="20" height="20" viewBox="0 0 20 20" fill="none" xmlns="http://www.w3.org/2000/svg">
<path d="M0.833323 2.99986C0.833323 1.80363 1.80363 0.833323 2.99991 0.833323H5.99982C7.19687 0.833323 8.16641 1.80346 8.16641 2.99986V5.99973C8.16641 7.1969 7.19704 8.16627 5.99982 8.16627H2.99991C1.80346 8.16627 0.833323 7.19673 0.833323 5.99973V2.99986ZM2.99991 1.1672C1.98752 1.1672 1.16723 1.98745 1.16723 2.99986V5.99973C1.16723 7.01112 1.9865 7.83333 2.99991 7.83333H5.99982C7.01222 7.83333 7.83343 7.01214 7.83343 5.99973V2.99986C7.83343 1.98644 7.0112 1.1672 5.99982 1.1672H2.99991Z" stroke="black" stroke-width="1.66665"/>
<path d="M11.8333 2.99986C11.8333 1.80346 12.8029 0.833323 13.9999 0.833323H16.9998C18.1961 0.833323 19.1664 1.80363 19.1664 2.99986V5.99973C19.1664 7.19673 18.1963 8.16627 16.9998 8.16627H13.9999C12.8027 8.16627 11.8333 7.1969 11.8333 5.99973V2.99986ZM13.9999 1.1672C12.9885 1.1672 12.1663 1.98644 12.1663 2.99986V5.99973C12.1663 7.01214 12.9875 7.83333 13.9999 7.83333H16.9998C18.0132 7.83333 18.8325 7.01112 18.8325 5.99973V2.99986C18.8325 1.98745 18.0122 1.1672 16.9998 1.1672H13.9999Z" stroke="black" stroke-width="1.66665"/>
<path d="M0.833323 14.0004C0.833323 12.8034 1.80346 11.8338 2.99991 11.8338H5.99982C7.19704 11.8338 8.16641 12.8032 8.16641 14.0004V17.0002C8.16641 18.1966 7.19687 19.1668 5.99982 19.1668H2.99991C1.80363 19.1668 0.833323 18.1964 0.833323 17.0002V14.0004ZM2.99991 12.1668C1.9865 12.1668 1.16723 12.989 1.16723 14.0004V17.0002C1.16723 18.0126 1.98752 18.8329 2.99991 18.8329H5.99982C7.0112 18.8329 7.83343 18.0136 7.83343 17.0002V14.0004C7.83343 12.9879 7.01222 12.1668 5.99982 12.1668H2.99991Z" stroke="black" stroke-width="1.66665"/>
<path d="M11.8333 14.0004C11.8333 12.8032 12.8027 11.8338 13.9999 11.8338H16.9998C18.1963 11.8338 19.1664 12.8034 19.1664 14.0004V17.0002C19.1664 18.1964 18.1961 19.1668 16.9998 19.1668H13.9999C12.8029 19.1668 11.8333 18.1966 11.8333 17.0002V14.0004ZM13.9999 12.1668C12.9875 12.1668 12.1663 12.9879 12.1663 14.0004V17.0002C12.1663 18.0136 12.9885 18.8329 13.9999 18.8329H16.9998C18.0122 18.8329 18.8325 18.0126 18.8325 17.0002V14.0004C18.8325 12.989 18.0132 12.1668 16.9998 12.1668H13.9999Z" stroke="black" stroke-width="1.66665"/>
</svg>
