<svg width="59" height="62" viewBox="0 0 59 62" fill="none" xmlns="http://www.w3.org/2000/svg">
<path d="M54.4616 40.2665L54.4626 40.2663C55.7981 39.9801 56.7335 38.9452 56.8849 37.6027C57.0363 36.2599 56.3539 35.0408 55.1166 34.4639L55.1149 34.4631L22.1692 19.0518C21.0883 18.5471 19.8498 18.6901 18.9204 19.419C18.0001 20.1432 17.575 21.2951 17.8046 22.441L54.4616 40.2665ZM54.4616 40.2665L38.8838 43.6165L38.1798 43.7679L37.8576 44.4119L30.758 58.6066L30.7571 58.6084C30.1594 59.8073 28.9387 60.4646 27.6013 60.3004L27.5644 60.2958C26.2148 60.1139 25.1965 59.1578 24.9308 57.8381L17.8048 22.4419L54.4616 40.2665ZM9.10645 26.5251L9.10315 26.5277L4.42867 30.1468L4.42816 30.1472C4.09396 30.4057 4.0341 30.8863 4.29105 31.2174L9.10645 26.5251ZM9.10645 26.5251C9.43724 26.2676 9.91528 26.3271 10.1734 26.6618L10.1749 26.6637C10.4345 26.9994 10.3724 27.4782 10.0393 27.7359L10.0387 27.7363L5.36426 31.3553L5.36288 31.3564M9.10645 26.5251L5.36288 31.3564M5.36288 31.3564C5.19692 31.4852 4.99989 31.5344 4.80327 31.5103C4.6074 31.4862 4.42458 31.3894 4.29109 31.2175L5.36288 31.3564ZM8.44549 5.82859L8.4473 5.82716C8.77342 5.569 9.25448 5.62223 9.51824 5.95592C9.51831 5.956 9.51838 5.95609 9.51844 5.95618C9.51851 5.95626 9.51857 5.95634 9.51864 5.95642L13.1783 10.5983L13.1787 10.5988C13.4397 10.9296 13.384 11.4092 13.0509 11.672L13.0491 11.6734C12.8847 11.8036 12.6837 11.8551 12.485 11.8307C12.2883 11.8066 12.1091 11.7112 11.9792 11.5461L11.9778 11.5443L8.31739 6.90465L8.31737 6.90462C8.05639 6.57385 8.11239 6.09144 8.44549 5.82859ZM29.4675 12.6991L29.4657 12.7005C29.3005 12.8287 29.1009 12.8782 28.9061 12.8543C28.7074 12.8299 28.5249 12.7313 28.3968 12.5652L28.3954 12.5634C28.1357 12.2278 28.1978 11.7489 28.531 11.4912L28.5311 11.4911L33.2052 7.87489L33.207 7.87348C33.5406 7.61462 34.0196 7.67633 34.2759 8.00867L34.2773 8.01058C34.537 8.34622 34.4749 8.82503 34.1417 9.08275L34.1416 9.08283L29.4675 12.6991ZM6.28254 32.5414L10.957 28.9224C11.9467 28.1568 12.1269 26.7356 11.3613 25.7459C10.5961 24.7534 9.17208 24.5729 8.18487 25.3416L3.51039 28.9607L6.28254 32.5414ZM21.81 8.85915C21.7585 9.27895 21.3774 9.57667 20.9576 9.52513C20.5378 9.47358 20.2401 9.09252 20.2916 8.67271L21.0086 2.83347C21.0601 2.41367 21.4412 2.11595 21.861 2.16749C22.2808 2.21904 22.5785 2.60011 22.527 3.01991L21.81 8.85915ZM8.32501 17.9279C8.74481 17.9794 9.04253 18.3605 8.99099 18.7803C8.93944 19.2001 8.55838 19.4978 8.13857 19.4463L2.24596 18.7228C1.82615 18.6712 1.52843 18.2901 1.57998 17.8703C1.63152 17.4505 2.01259 17.1528 2.43239 17.2044L8.32501 17.9279Z" stroke="#444444" stroke-width="3"/>
</svg>
