<svg width="51" height="60" viewBox="0 0 51 60" fill="none" xmlns="http://www.w3.org/2000/svg">
<path d="M25.9681 0.230196C25.4921 -0.109792 24.9481 -0.0417944 24.4721 0.230196C24.4041 0.298193 14.9525 7.43793 1.35297 9.68185C0.740993 9.74985 0.333008 10.2938 0.333008 10.9058V37.3568C0.333008 37.5608 0.401006 37.7648 0.469003 37.9008C0.808991 38.5128 8.15272 52.3843 24.7441 59.864C24.8801 59.932 25.0841 60 25.2881 60C25.4921 60 25.6281 59.932 25.8321 59.864C42.4235 52.3843 49.8352 38.4448 50.1072 37.9008C50.1752 37.6968 50.2432 37.4928 50.2432 37.3568V10.9738C50.2432 10.3618 49.8352 9.81784 49.2232 9.74985C36.4397 7.50593 26.0361 0.298193 25.9681 0.230196ZM47.6593 37.0848C46.6393 38.9208 39.9076 50.0724 26.512 56.8041V47.6245C26.512 46.9445 25.9681 46.4005 25.2881 46.4005C24.6081 46.4005 24.0641 46.9445 24.0641 47.6245V56.8041C10.6006 50.0724 3.86888 38.9208 2.78092 37.0848V11.9938C12.9125 10.1578 20.5283 5.87399 23.9961 3.63007V7.36993C23.9961 8.04991 24.5401 8.59389 25.2201 8.59389C25.9001 8.59389 26.444 8.04991 26.444 7.36993V3.56207C29.9799 5.73799 38.0036 10.0898 47.6593 11.9938V37.0848Z" fill="#444444"/>
<path d="M18.5559 16.8899C18.5559 18.3859 19.0999 19.8138 19.9838 20.9698L12.7081 22.6017C12.6401 22.6017 12.5721 22.6697 12.5041 22.6697C11.9601 22.8737 11.0762 23.6217 11.0762 24.8456C11.0762 25.8656 11.7561 26.6136 12.5041 26.8856C12.6401 26.9536 12.7761 26.9536 12.9121 26.9536L19.7119 27.1576C19.8478 27.9735 20.0518 29.6735 20.0518 31.1014L16.72 42.389C16.72 42.525 16.652 42.593 16.652 42.729C16.652 44.8369 17.8079 46.1969 19.6439 46.1969C22.0918 46.1969 23.1797 43.001 23.5877 41.777L25.0837 37.2212L26.5796 41.777C27.1236 43.409 28.3475 46.2649 30.5915 46.2649C31.9514 46.2649 33.5153 45.3809 33.5153 42.797C33.5153 42.661 33.5153 42.593 33.4473 42.457L30.1155 31.1694C30.1155 29.7415 30.1835 28.1095 30.3195 27.2935H37.1192C38.2752 27.2935 39.4991 26.4776 39.4991 24.9816C39.4991 23.6217 38.4112 22.8057 37.3232 22.6017L30.2515 21.1738C31.1354 20.0178 31.6794 18.5899 31.6794 17.0939C31.6794 13.4901 28.7555 10.5662 25.1517 10.5662C21.5478 10.5662 18.5559 13.2861 18.5559 16.8899ZM29.1635 16.8899C29.1635 18.7259 27.9396 20.3578 26.1036 20.8338C25.4236 21.0378 25.0157 21.7178 25.2197 22.3297C25.3556 22.8737 25.8996 23.2817 26.4436 23.2817C26.5796 23.2817 26.6476 23.2817 26.7836 23.2137C27.0556 23.1457 27.2596 23.0777 27.4636 22.9417L35.6913 24.6416H29.5715C29.2995 24.6416 29.0955 24.7096 28.8915 24.8456C28.2795 25.1176 27.5996 25.8656 27.6676 31.2374C27.6676 31.3734 27.6676 31.4414 27.7356 31.5774L31.0674 42.865C30.9994 43.681 30.7275 43.6809 30.5915 43.6809C30.3875 43.6809 29.5715 42.865 28.9595 40.961L26.3076 32.8013C26.1716 32.2574 25.6276 31.9174 25.1517 31.9174C24.6077 31.9174 24.1317 32.2574 23.9957 32.8013L21.3438 40.961C20.4598 43.6129 19.7799 43.6809 19.7799 43.6809C19.6439 43.6809 19.3039 43.681 19.2359 42.865L22.5677 31.5774C22.6357 31.4414 22.6357 31.3054 22.6357 31.1694C22.4998 25.2536 21.6838 24.9816 21.0038 24.7776C21.0038 24.7776 21.0038 24.7776 20.9358 24.7776C20.7998 24.7096 20.5958 24.6416 20.4598 24.6416L15.632 24.5057L22.7037 22.9417C22.7717 22.9417 22.8397 23.0097 22.9077 23.0097C23.5877 23.2817 24.2677 22.9417 24.5397 22.2617C24.8117 21.5818 24.4717 20.9018 23.7917 20.6298C22.2278 20.0178 21.1398 18.5219 21.1398 16.8219C21.1398 14.578 22.9757 12.7421 25.2197 12.7421C27.3956 12.8781 29.1635 14.646 29.1635 16.8899Z" fill="#444444"/>
</svg>
