<svg width="20" height="20" viewBox="0 0 20 20" fill="none" xmlns="http://www.w3.org/2000/svg">
<path d="M12.4549 14.9419L12.0465 14.3286L11.3878 14.6589C10.4033 15.1526 9.30216 15.4364 8.13681 15.4364C4.1163 15.4364 0.835286 12.1537 0.835286 8.13288C0.835286 4.11273 4.11639 0.833333 8.13681 0.833333C12.1572 0.833333 15.4383 4.11273 15.4383 8.13288C15.4383 9.29851 15.1558 10.4001 14.6627 11.3841L14.3332 12.0418L14.9449 12.4504L18.0491 14.5238L18.0497 14.5242C19.3648 15.401 19.5531 17.3151 18.4331 18.4351C17.315 19.5532 15.4004 19.363 14.5222 18.0458L12.4549 14.9419ZM14.8322 12.8144L14.2635 12.4341L13.7798 12.9179L12.9238 13.7739L12.4408 14.2569L12.8196 14.8253L14.8315 17.8441L14.8315 17.8442C15.6057 19.0054 17.1937 19.1578 18.1777 18.1737C19.1678 17.1836 18.994 15.5951 17.8405 14.8258C17.8404 14.8258 17.8403 14.8257 17.8402 14.8256L14.8322 12.8144ZM15.0713 8.13288C15.0713 4.29076 11.9787 1.20038 8.13681 1.20038C4.29495 1.20038 1.20234 4.29076 1.20234 8.13288C1.20234 11.9746 4.29498 15.0693 8.13681 15.0693C11.9787 15.0693 15.0713 11.9746 15.0713 8.13288Z" stroke="black" stroke-width="1.66667"/>
</svg>
