<svg width="53" height="60" viewBox="0 0 53 60" fill="none" xmlns="http://www.w3.org/2000/svg">
<path d="M26.3802 0C18.7228 0.0160463 11.0947 2.01221 4.41279 5.74465C2.6316 6.7395 1.3704 8.45973 0.953197 10.4591C0.320967 13.4855 0.00328632 16.5792 0 19.6731C0 35.6685 9.08832 51.23 23.0174 59.0925C25.1644 60.3025 27.7928 60.3025 29.9367 59.0925C43.8715 51.233 52.9573 35.6677 52.9598 19.6731C52.9598 16.5794 52.6389 13.4889 52.0099 10.4591C51.5927 8.46293 50.3314 6.74279 48.5503 5.74786C41.8364 1.9994 34.1726 0.00320381 26.4802 0.00320381H26.3903L26.3802 0ZM26.3802 3.1708H26.4701C33.6107 3.1708 40.7582 5.03218 46.9907 8.51428C47.9727 9.06307 48.6627 10.0066 48.8938 11.1041C49.4811 13.9187 49.7763 16.7974 49.7795 19.6732C49.7795 34.4584 41.249 49.0636 28.3732 56.3297C27.1922 56.9972 25.7513 56.9972 24.5702 56.3297C11.6911 49.0638 3.16397 34.4584 3.16397 19.6732C3.16397 16.7977 3.46243 13.919 4.04972 11.1041C4.27757 10.0066 4.97079 9.06301 5.94962 8.51428C12.1564 5.0482 19.2683 3.19003 26.3766 3.17401L26.3802 3.1708Z" fill="#444444"/>
<path d="M26.3938 5.45606C19.6286 5.47211 12.979 7.20832 7.07352 10.5075H7.07031C6.66915 10.7321 6.38673 11.1172 6.29045 11.5698C5.73524 14.2367 5.45605 16.9518 5.45605 19.6765C5.45605 34.0352 13.1937 47.2857 25.7006 54.343C26.182 54.6158 26.7757 54.6158 27.2571 54.343C39.764 47.2858 47.5016 34.0344 47.5016 19.6765C47.5016 16.955 47.2224 14.2367 46.6672 11.573V11.5698C46.5742 11.1205 46.2885 10.7322 45.8874 10.5075C39.9566 7.1955 33.2745 5.45605 26.4808 5.45605L26.3938 5.45606ZM26.4002 8.62686H26.4772C32.485 8.62686 38.3934 10.1096 43.6885 12.9273C44.1057 15.1514 44.3272 17.4107 44.3272 19.6733C44.3272 32.591 37.5299 44.5195 26.4767 51.1209C15.424 44.5193 8.62623 32.5901 8.62623 19.6733C8.62623 17.4075 8.84767 15.1514 9.26487 12.9241C14.5346 10.1192 20.4137 8.63976 26.3932 8.62366L26.4002 8.62686Z" fill="#444444"/>
<path d="M34.5119 18.0623C34.0947 18.0655 33.6935 18.2324 33.3982 18.5277L26.28 25.6459C25.6606 26.2653 25.6606 27.2698 26.28 27.8892C26.8994 28.5086 27.9039 28.5086 28.5233 27.8892L35.6416 20.771C36.261 20.1516 36.261 19.147 35.6416 18.5277C35.3431 18.2292 34.9355 18.0591 34.5119 18.0623Z" fill="#444444"/>
<path d="M24.1046 21.8877C23.6874 21.8909 23.2862 22.0578 22.9909 22.353C22.3715 22.9724 22.3715 23.977 22.9909 24.5964L26.2836 27.8891H26.2804C26.8998 28.5085 27.9044 28.5085 28.5238 27.8891C29.1432 27.2697 29.1432 26.2652 28.5238 25.6458L25.231 22.353H25.2342C24.9358 22.0546 24.5282 21.8877 24.1046 21.8877Z" fill="#444444"/>
<path d="M26.2612 14.965C23.2798 15.0741 20.4331 16.4926 18.5557 18.9349C16.0556 22.1955 15.7636 26.65 17.8175 30.2094C19.8715 33.7685 23.8767 35.7422 27.9492 35.2062C32.0218 34.6703 35.382 31.7241 36.4444 27.7575C36.6722 26.9135 36.1716 26.0437 35.3243 25.8158C34.9167 25.7067 34.4835 25.7645 34.1209 25.9731C33.755 26.1849 33.4919 26.5315 33.3827 26.9359C32.6478 29.6734 30.3468 31.6921 27.5386 32.0612C24.7304 32.4302 21.9833 31.0759 20.568 28.624C19.1494 26.1689 19.3516 23.1137 21.0751 20.8671C22.8017 18.6174 25.6996 17.6354 28.4371 18.3671H28.4339C29.2811 18.5949 30.1509 18.0943 30.3756 17.247C30.6034 16.3998 30.1028 15.5301 29.2555 15.3054C28.2639 15.039 27.256 14.9297 26.2612 14.965Z" fill="#444444"/>
</svg>
